<?xml version="1.0" encoding="utf-8"?>
<!-- Generator: Adobe Illustrator 22.0.0, SVG Export Plug-In . SVG Version: 6.00 Build 0)  -->
<svg version="1.1" id="Capa_1" xmlns="http://www.w3.org/2000/svg" xmlns:xlink="http://www.w3.org/1999/xlink" x="0px" y="0px"
	 viewBox="0 0 36 36" style="enable-background:new 0 0 36 36;" xml:space="preserve">
<style type="text/css">
	.st0{fill:#24292F;}
</style>
<path class="st0" d="M25.1,3.6H10.9c-4,0-7.3,3.3-7.3,7.3v14.2c0,4,3.3,7.3,7.3,7.3h4.9V22.1h-3.6V18h3.6v-3.1
	c0-3.6,2.1-5.5,5.4-5.5c1.6,0,3.2,0.3,3.2,0.3v3.5h-1.8c-1.8,0-2.3,1.1-2.3,2.2V18h3.9l-0.6,4.1h-3.3v10.3l0,0h4.9
	c4,0,7.3-3.3,7.3-7.3V10.9C32.4,6.9,29.1,3.6,25.1,3.6z"/>
</svg>
