<?xml version="1.0" encoding="utf-8"?>
<!-- Generator: Adobe Illustrator 22.0.0, SVG Export Plug-In . SVG Version: 6.00 Build 0)  -->
<svg version="1.1" id="Capa_1" xmlns="http://www.w3.org/2000/svg" xmlns:xlink="http://www.w3.org/1999/xlink" x="0px" y="0px"
	 viewBox="0 0 36 36" style="enable-background:new 0 0 36 36;" xml:space="preserve">
<style type="text/css">
	.st0{fill:#24292F;}
</style>
<path class="st0" d="M18,3.6c-8.1,0-14.6,6.6-14.6,14.7c0,6.5,4.2,12,10,14c0.7,0.1,1-0.3,1-0.7c0-0.3,0-1.5,0-2.7
	c-4.1,0.9-4.9-1.8-4.9-1.8C8.8,25.4,7.8,25,7.8,25c-1.3-0.9,0.1-0.9,0.1-0.9c1.5,0.1,2.2,1.5,2.2,1.5c1.3,2.2,3.4,1.6,4.3,1.2
	c0.1-1,0.5-1.6,0.9-2c-3.2-0.3-6.6-1.6-6.6-7.3c0-1.6,0.6-2.9,1.5-3.9c-0.1-0.4-0.7-1.9,0.1-3.9c0,0,1.2-0.4,4,1.5
	c1.2-0.3,2.4-0.5,3.7-0.5c1.2,0,2.5,0.2,3.7,0.5c2.8-1.9,4-1.5,4-1.5c0.8,2,0.3,3.5,0.1,3.9c0.9,1,1.5,2.3,1.5,3.9
	c0,5.7-3.4,6.9-6.7,7.3c0.5,0.5,1,1.3,1,2.7c0,2,0,3.6,0,4c0,0.4,0.3,0.9,1,0.7c5.8-1.9,10-7.5,10-14C32.6,10.2,26,3.6,18,3.6z"/>
</svg>
