<?xml version="1.0" encoding="utf-8"?>
<!-- Generator: Adobe Illustrator 22.0.0, SVG Export Plug-In . SVG Version: 6.00 Build 0)  -->
<svg version="1.1" id="Capa_1" xmlns="http://www.w3.org/2000/svg" xmlns:xlink="http://www.w3.org/1999/xlink" x="0px" y="0px"
	 viewBox="0 0 36 36" style="enable-background:new 0 0 36 36;" xml:space="preserve">
<style type="text/css">
	.st0{fill:#616160;}
</style>
<g>
	<path class="st0" d="M18,33.3l-12.6-8V10.7l12.6-8l12.6,8v14.5L18,33.3z M6.8,24.5L18,31.6l11.2-7.1v-13L18,4.4L6.8,11.5V24.5z"/>
	<path class="st0" d="M18,23.7c-3.1,0-5.7-2.6-5.7-5.7s2.6-5.7,5.7-5.7s5.7,2.6,5.7,5.7S21.1,23.7,18,23.7z M18,13.7
		c-2.4,0-4.3,1.9-4.3,4.3s1.9,4.3,4.3,4.3s4.3-1.9,4.3-4.3S20.4,13.7,18,13.7z"/>
</g>
</svg>
