<?xml version="1.0" encoding="utf-8"?>
<!-- Generator: Adobe Illustrator 22.0.0, SVG Export Plug-In . SVG Version: 6.00 Build 0)  -->
<svg version="1.1" id="Capa_1" xmlns="http://www.w3.org/2000/svg" xmlns:xlink="http://www.w3.org/1999/xlink" x="0px" y="0px"
	 viewBox="0 0 36 36" style="enable-background:new 0 0 36 36;" xml:space="preserve">
<style type="text/css">
	.st0{fill:#24292F;}
</style>
<g>
	<path class="st0" d="M21.3,11.3h-6.6c-1.9,0-3.4,1.5-3.4,3.4v6.6c0,1.9,1.5,3.4,3.4,3.4h6.6c1.9,0,3.4-1.5,3.4-3.4v-6.6
		C24.8,12.8,23.2,11.3,21.3,11.3z M18.1,22.1c-2.3,0-4.1-1.8-4.1-4.1c0-2.3,1.8-4.1,4.1-4.1c2.3,0,4.1,1.8,4.1,4.1
		C22.2,20.3,20.3,22.1,18.1,22.1z M22.4,14.6c-0.5,0-1-0.4-1-1s0.4-1,1-1c0.5,0,1,0.4,1,1S22.9,14.6,22.4,14.6z"/>
	<path class="st0" d="M18.1,15.4c-1.4,0-2.6,1.2-2.6,2.6c0,1.4,1.2,2.6,2.6,2.6c1.4,0,2.6-1.2,2.6-2.6
		C20.7,16.6,19.5,15.4,18.1,15.4z"/>
	<path class="st0" d="M29.9,3.6H6.1c-1.4,0-2.5,1.1-2.5,2.5v23.7c0,1.4,1.1,2.5,2.5,2.5h23.7c1.4,0,2.5-1.1,2.5-2.5V6.1
		C32.4,4.7,31.2,3.6,29.9,3.6z M26.3,21.3c0,2.8-2.2,5-5,5h-6.6c-2.8,0-5-2.2-5-5v-6.6c0-2.8,2.2-5,5-5h6.6c2.8,0,5,2.2,5,5V21.3z"
		/>
</g>
</svg>
