<?xml version="1.0" encoding="utf-8"?>
<!-- Generator: Adobe Illustrator 22.0.0, SVG Export Plug-In . SVG Version: 6.00 Build 0)  -->
<svg version="1.1" id="Capa_1" xmlns="http://www.w3.org/2000/svg" xmlns:xlink="http://www.w3.org/1999/xlink" x="0px" y="0px"
	 viewBox="0 0 35 35.2" style="enable-background:new 0 0 35 35.2;" xml:space="preserve">
<style type="text/css">
	.st0{opacity:0.8;fill:#282727;}
</style>
<path class="st0" d="M34.3,31.3l-7-7c1.9-2.5,3-5.7,3-9.1C30.3,6.8,23.5,0,15.2,0S0,6.8,0,15.2s6.8,15.2,15.2,15.2
	c3.3,0,6.3-1.1,8.8-2.8l7,7c0.5,0.5,1,0.7,1.6,0.7s1.2-0.2,1.6-0.7C35.2,33.7,35.2,32.2,34.3,31.3z M4.6,15.2
	c0-5.8,4.7-10.6,10.6-10.6c5.8,0,10.6,4.7,10.6,10.6c0,5.8-4.7,10.6-10.6,10.6C9.3,25.7,4.6,21,4.6,15.2z"/>
</svg>
