<?xml version="1.0" encoding="utf-8"?>
<!-- Generator: Adobe Illustrator 22.0.0, SVG Export Plug-In . SVG Version: 6.00 Build 0)  -->
<svg version="1.1" id="Capa_1" xmlns="http://www.w3.org/2000/svg" xmlns:xlink="http://www.w3.org/1999/xlink" x="0px" y="0px"
	 viewBox="0 0 36 36" style="enable-background:new 0 0 36 36;" xml:space="preserve">
<style type="text/css">
	.st0{fill:#24292F;}
</style>
<path class="st0" d="M32.2,12.8c0-6.6-4.3-8.5-4.3-8.5c-2.2-1-5.9-1.4-9.8-1.5H18c-3.9,0-7.6,0.5-9.8,1.5c0,0-4.3,1.9-4.3,8.5
	c0,1.5,0,3.3,0,5.2C4,24.5,5,30.8,11,32.4c2.7,0.7,5.1,0.9,7,0.8c3.4-0.2,5.4-1.2,5.4-1.2l-0.1-2.5c0,0-2.5,0.8-5.2,0.7
	c-2.7-0.1-5.6-0.3-6.1-3.7c0-0.3-0.1-0.6-0.1-0.9c0,0,2.7,0.7,6.1,0.8c2.1,0.1,4-0.1,6-0.4c3.8-0.5,7.1-2.8,7.5-4.9
	C32.2,17.6,32.2,12.8,32.2,12.8z M27.1,21.3h-3.2v-7.7c0-1.6-0.7-2.5-2.1-2.5c-1.5,0-2.3,1-2.3,2.9v4.2h-3.1V14
	c0-1.9-0.8-2.9-2.3-2.9c-1.4,0-2.1,0.8-2.1,2.5v7.7H8.9v-8c0-1.6,0.4-2.9,1.2-3.9c0.9-1,2-1.4,3.4-1.4c1.6,0,2.8,0.6,3.7,1.9
	l0.8,1.3l0.8-1.3c0.8-1.2,2-1.9,3.7-1.9c1.4,0,2.5,0.5,3.4,1.4c0.8,1,1.2,2.3,1.2,3.9V21.3z"/>
</svg>
