<?xml version="1.0" encoding="utf-8"?>
<!-- Generator: Adobe Illustrator 22.0.0, SVG Export Plug-In . SVG Version: 6.00 Build 0)  -->
<svg version="1.1" id="Capa_1" xmlns="http://www.w3.org/2000/svg" xmlns:xlink="http://www.w3.org/1999/xlink" x="0px" y="0px"
	 viewBox="0 0 36 36" style="enable-background:new 0 0 36 36;" xml:space="preserve">
<style type="text/css">
	.st0{fill:#E63838;}
	.st1{fill:#EFE300;}
	.st2{fill:#0081B9;}
</style>
<g>
	<g>
		<path class="st0" d="M1.9,1.1C1.2,1.1,0.6,2,0.6,3v0.1c0.3-0.4,0.6-0.7,1-0.7h11.5C13,1.7,12.5,1,11.9,1h-10V1.1z"/>
		<path class="st0" d="M1.9,3C1.2,3,0.6,3.9,0.6,4.9v14.3c0,1,0.6,1.9,1.3,1.9h16.3c0.7,0,1.3-0.9,1.3-1.9V4.9c0-1-0.6-1.9-1.3-1.9
			H1.9z"/>
	</g>
	<g>
		<path class="st1" d="M10.1,8.1C9.4,8.1,8.7,9,8.7,10v0.1c0.2-0.3,0.6-0.7,1-0.7h11.5C21.2,8.7,20.6,8,20,8h-10V8.1z"/>
		<path class="st1" d="M10.1,10c-0.7,0-1.3,0.9-1.3,1.9v14.3c0,1,0.6,1.9,1.3,1.9h16.3c0.7,0,1.3-0.9,1.3-1.9V11.9
			c0-1-0.6-1.9-1.3-1.9H10.1z"/>
	</g>
	<g>
		<path class="st2" d="M17.8,14.9c-0.7,0-1.3,0.9-1.3,1.9v0.1c0.2-0.3,0.6-0.7,1-0.7H29c-0.1-0.8-0.6-1.4-1.2-1.4h-10V14.9z"/>
		<path class="st2" d="M17.8,16.9c-0.7,0-1.3,0.9-1.3,1.9v14.3c0,1,0.6,1.9,1.3,1.9h16.3c0.7,0,1.3-0.9,1.3-1.9V18.8
			c0-1-0.6-1.9-1.3-1.9H17.8z"/>
	</g>
</g>
</svg>
