<?xml version="1.0" encoding="utf-8"?>
<!-- Generator: Adobe Illustrator 22.0.0, SVG Export Plug-In . SVG Version: 6.00 Build 0)  -->
<svg version="1.1" id="Capa_1" xmlns="http://www.w3.org/2000/svg" xmlns:xlink="http://www.w3.org/1999/xlink" x="0px" y="0px"
	 viewBox="0 0 36 36" style="enable-background:new 0 0 36 36;" xml:space="preserve">
<style type="text/css">
	.st0{fill:#24292F;}
</style>
<path class="st0" d="M35.3,7.1c-1.1,0.5-2.3,0.8-3.5,1C32.3,8,33.2,7,33.5,6.6c0.5-0.6,0.9-1.4,1.2-2.1c0-0.1,0.1-0.1,0-0.2
	c-0.1,0-0.1,0-0.2,0c-1.3,0.7-2.7,1.2-4.2,1.6c-0.1,0-0.2,0-0.3-0.1c-0.1-0.1-0.2-0.3-0.4-0.4c-0.6-0.5-1.3-0.9-2-1.2
	c-1-0.4-2-0.6-3.1-0.5c-1,0.1-2,0.4-2.9,0.8c-0.9,0.5-1.7,1.1-2.4,1.9c-0.7,0.8-1.2,1.8-1.4,2.8c-0.2,1-0.2,2-0.1,3
	c0,0.2,0,0.2-0.1,0.2C11.8,11.6,7,9.5,3.2,5.1C3,5,2.9,5,2.8,5.2C1.1,7.7,1.9,11.8,4,13.8c0.3,0.3,0.6,0.5,0.9,0.8
	c-0.1,0-1.5-0.1-2.8-0.8c-0.2-0.1-0.3,0-0.3,0.1c0,0.3,0,0.5,0,0.8c0.3,2.6,2.1,4.9,4.5,5.9c0.3,0.1,0.6,0.2,0.9,0.3
	C6.8,21,6.3,21.1,4.7,21c-0.2,0-0.3,0.1-0.2,0.3c1.2,3.3,3.8,4.2,5.7,4.8c0.3,0,0.5,0,0.8,0.1c0,0,0,0,0,0c-0.6,1-2.9,1.7-3.9,2.1
	c-1.9,0.7-3.9,1-5.9,0.8c-0.3,0-0.4,0-0.5,0c-0.1,0.1,0,0.1,0.1,0.2c0.4,0.3,0.8,0.5,1.2,0.7c1.3,0.7,2.6,1.2,4,1.6
	c7.1,2,15.1,0.5,20.5-4.8C30.6,22.5,32,16.8,32,11c0-0.2,0.3-0.3,0.4-0.5c1.1-0.8,2-1.8,2.8-2.9c0.2-0.2,0.2-0.5,0.2-0.6
	c0,0,0,0,0,0C35.4,7,35.4,7,35.3,7.1z"/>
</svg>
